<svg id="Layer_1" data-name="Layer 1" xmlns="http://www.w3.org/2000/svg" viewBox="0 0 500 355.39"><defs><style>.cls-1{fill:#ebebeb;}.cls-2,.cls-8{fill:#e0e0e0;}.cls-3{fill:#f5f4f5;}.cls-4{fill:#e6e6e6;}.cls-5{fill:#f0f0f0;}.cls-10,.cls-11,.cls-20,.cls-6{fill:#fff;}.cls-7{fill:#fbfbfb;}.cls-8{opacity:0.6;}.cls-9{fill:#4b6fb5;}.cls-10{opacity:0.8;}.cls-11,.cls-12{opacity:0.3;}.cls-13{fill:#263239;}.cls-14{fill:#943c3b;}.cls-15{fill:#923c39;}.cls-16{fill:#74160f;}.cls-17{opacity:0.2;}.cls-18,.cls-20{opacity:0.4;}.cls-19{opacity:0.5;}</style></defs><rect class="cls-1" y="310.23" width="500" height="0.25"/><rect class="cls-1" x="50.1" y="326.32" width="21.68" height="0.25"/><rect class="cls-1" x="155.33" y="321.13" width="34.11" height="0.25"/><rect class="cls-1" x="58.89" y="317.04" width="44.53" height="0.25"/><rect class="cls-1" x="326.99" y="322.08" width="11.14" height="0.25"/><rect class="cls-1" x="347.03" y="322.08" width="38.39" height="0.25"/><rect class="cls-1" x="406" y="317.86" width="27.7" height="0.25"/><path class="cls-2" d="M385,102.45a20.91,20.91,0,1,1,0-41.82h2.57v41.82Z"/><circle class="cls-3" cx="387.59" cy="81.54" r="20.91"/><path class="cls-2" d="M388.55,84.17a28,28,0,0,0,28-28V39.46a2.63,2.63,0,1,0-5.26,0V56.18a22.76,22.76,0,0,1-22.73,22.74,2.63,2.63,0,1,0,0,5.25Z"/><path class="cls-3" d="M437.17,54.18H390.65a4.86,4.86,0,0,1-4.7-6.1l4-15.24a4.85,4.85,0,0,1,4.69-3.61h38.45a4.86,4.86,0,0,1,4.7,3.61l4,15.24A4.85,4.85,0,0,1,437.17,54.18Z"/><path class="cls-2" d="M89.72,102.45a20.91,20.91,0,1,1,0-41.82h2.57v41.82Z"/><circle class="cls-3" cx="92.29" cy="81.54" r="20.91"/><path class="cls-2" d="M93.25,84.17a28,28,0,0,0,28-28V39.46a2.63,2.63,0,1,0-5.26,0V56.18A22.76,22.76,0,0,1,93.25,78.92a2.63,2.63,0,1,0,0,5.25Z"/><path class="cls-3" d="M141.87,54.18H95.35a4.86,4.86,0,0,1-4.7-6.1l4-15.24a4.85,4.85,0,0,1,4.69-3.61h38.45a4.86,4.86,0,0,1,4.7,3.61l4,15.24A4.85,4.85,0,0,1,141.87,54.18Z"/><rect class="cls-4" x="350.81" y="184.75" width="15.21" height="58.93"/><polygon class="cls-5" points="407.25 243.68 356.78 243.68 349.16 174.71 399.63 174.71 407.25 243.68"/><polygon class="cls-3" points="412.71 243.68 360.58 243.68 352.96 174.71 405.09 174.71 412.71 243.68"/><polygon class="cls-6" points="364.35 238.25 357.93 180.14 401.33 180.14 407.75 238.25 364.35 238.25"/><path class="cls-3" d="M373.31,224.16l-.26-2.37c-1.61-14.57,7.49-27.56,19.31-27.56h0l.27,2.36c1.61,14.58-7.49,27.57-19.32,27.57Z"/><rect class="cls-4" x="396.08" y="243.68" width="44.84" height="66.55"/><polygon class="cls-5" points="436.41 310.23 440.92 310.23 440.92 297.4 431.68 297.4 436.41 310.23"/><rect class="cls-4" x="270.41" y="243.68" width="44.84" height="66.55"/><rect class="cls-5" x="311.31" y="243.68" width="129.61" height="58.67"/><polygon class="cls-5" points="315.82 310.23 311.31 310.23 311.31 297.4 320.55 297.4 315.82 310.23"/><rect class="cls-4" x="314.81" y="247.35" width="122.61" height="23.68"/><path class="cls-5" d="M384.29,262.78H367.94a25.87,25.87,0,0,1-18.78-8.07h53.91A25.9,25.9,0,0,1,384.29,262.78Z"/><rect class="cls-4" x="314.81" y="274.85" width="122.61" height="23.68"/><path class="cls-5" d="M384.29,290.29H367.94a25.84,25.84,0,0,1-18.78-8.08h53.91A25.87,25.87,0,0,1,384.29,290.29Z"/><path class="cls-4" d="M319.52,241h-1.16c0-2.39,0-8.44-.12-22.32-.21-25.14-.61-26.67-.61-26.67l2.76,11.61C322.14,216.44,319.88,229.36,319.52,241Z"/><path class="cls-4" d="M321.81,201.86c4-4.74,12.45-6.11,21.13-7.29,3.41-.46-8.95,7.33-15,12.86-4.7,4.3-7.7,5.49-9,9.77C318.28,211.86,318.39,205.93,321.81,201.86Z"/><path class="cls-4" d="M316.54,210.31c-4-4.73-12.45-6.11-21.13-7.28-3.41-.47,9,7.32,15,12.86,4.7,4.3,7.7,5.48,9,9.77C320.07,220.32,320,214.39,316.54,210.31Z"/><path class="cls-4" d="M318.24,190.87c-3-5.66-10.46-11-18.87-13-3.3-.8,7.65,10.44,11.81,17.68,3.23,5.63,7.51,12.24,8.18,17C320.36,203.13,321.22,196.52,318.24,190.87Z"/><path class="cls-5" d="M318.6,243.68h0c3.54,0,6.47-1.78,6.68-4.05l.59-3.89H311.32l.6,3.89C312.12,241.9,315.05,243.68,318.6,243.68Z"/><polygon class="cls-5" points="310.38 237.24 326.81 237.24 327.28 232.91 309.91 232.91 310.38 237.24"/><rect class="cls-4" x="170.25" y="8.42" width="160.21" height="146.13"/><rect class="cls-3" x="171.82" y="8.42" width="162.24" height="146.13"/><rect class="cls-7" x="186.42" y="6.83" width="133.04" height="149.3" transform="translate(334.43 -171.46) rotate(90)"/><polygon class="cls-6" points="196.61 148 255.37 14.96 275.33 14.96 216.57 148 196.61 148"/><polygon class="cls-6" points="222.23 148 280.99 14.96 294.73 14.96 235.97 148 222.23 148"/><rect class="cls-4" x="209.5" y="77.62" width="133.04" height="7.72" transform="translate(357.5 -194.53) rotate(90)"/><rect class="cls-4" x="158.18" y="77.62" width="133.04" height="7.72" transform="translate(306.18 -143.21) rotate(90)"/><rect class="cls-3" x="207.4" y="76.25" width="142.06" height="9.76" transform="translate(359.56 -197.3) rotate(90)"/><rect class="cls-3" x="156.08" y="76.25" width="142.06" height="9.76" transform="translate(308.24 -145.98) rotate(90)"/><rect class="cls-4" x="260.73" y="81.14" width="133.04" height="0.69" transform="translate(408.73 -245.77) rotate(90)"/><path class="cls-4" d="M336.78,0H163.22a.84.84,0,0,0-.84.83h0a.85.85,0,0,0,.84.84H336.78a.85.85,0,0,0,.84-.84h0A.84.84,0,0,0,336.78,0Z"/><path class="cls-4" d="M170.25,5.51h0a1.13,1.13,0,0,1-1.12-1.13V2A1.13,1.13,0,0,1,170.25.83h0A1.14,1.14,0,0,1,171.38,2V4.38A1.14,1.14,0,0,1,170.25,5.51Z"/><path class="cls-4" d="M324.2,5.51h0a1.14,1.14,0,0,1-1.13-1.13V2A1.14,1.14,0,0,1,324.2.83h0A1.13,1.13,0,0,1,325.32,2V4.38A1.13,1.13,0,0,1,324.2,5.51Z"/><rect class="cls-8" x="174.39" y="0.83" width="162.13" height="114.44"/><rect class="cls-7" x="154.33" y="187.8" width="38.72" height="23.7" rx="5.38" transform="translate(347.38 399.3) rotate(-180)"/><rect class="cls-4" x="154.33" y="183.42" width="38.72" height="5.08" rx="1.81" transform="translate(347.38 371.91) rotate(-180)"/><path class="cls-5" d="M192.48,237.78s-.51,16.67-19.93,16.67-19.93-16.67-19.93-16.67Z"/><path class="cls-5" d="M148.2,237.78s-.51,16.67-19.93,16.67-19.93-16.67-19.93-16.67Z"/><rect class="cls-5" x="110.56" y="177.06" width="53.2" height="34.44" rx="7.4" transform="translate(274.32 388.56) rotate(-180)"/><rect class="cls-3" x="110.56" y="171.05" width="53.2" height="6.98" rx="2.48" transform="translate(274.32 349.07) rotate(-180)"/><rect class="cls-4" x="202.07" y="227.58" width="5.04" height="82.64"/><rect class="cls-4" x="61.58" y="211.5" width="27.29" height="16.08" transform="translate(150.45 439.08) rotate(-180)"/><rect class="cls-3" x="88.87" y="211.5" width="135.68" height="16.08"/><rect class="cls-4" x="61.58" y="254.45" width="27.29" height="16.08" transform="translate(150.45 524.97) rotate(-180)"/><rect class="cls-3" x="88.87" y="254.45" width="135.68" height="16.08"/><rect class="cls-4" x="66.38" y="227.58" width="5.04" height="82.64"/><rect class="cls-3" x="88.87" y="227.58" width="5.04" height="82.64"/><rect class="cls-3" x="219.52" y="227.58" width="5.04" height="82.64"/><ellipse id="_Path_" data-name="&lt;Path&gt;" class="cls-3" cx="250" cy="344.07" rx="193.89" ry="11.32"/><path class="cls-9" d="M239.59,293.32H367.16a8.12,8.12,0,0,0,8-7.63L386.6,64.14a7.17,7.17,0,0,0-7.24-7.63H251.79a8.12,8.12,0,0,0-8,7.63L232.35,285.69A7.17,7.17,0,0,0,239.59,293.32Z"/><path class="cls-10" d="M239.59,293.32H367.16a8.12,8.12,0,0,0,8-7.63L386.6,64.14a7.17,7.17,0,0,0-7.24-7.63H251.79a8.12,8.12,0,0,0-8,7.63L232.35,285.69A7.17,7.17,0,0,0,239.59,293.32Z"/><rect class="cls-9" x="264.38" y="49.28" width="14.11" height="1"/><rect class="cls-9" x="283.38" y="49.28" width="5.17" height="1"/><path class="cls-9" d="M234.1,279.27h122a7.78,7.78,0,0,0,7.68-7.3L374.71,60.08a6.86,6.86,0,0,0-6.93-7.3h-122a7.77,7.77,0,0,0-7.67,7.3L227.18,272A6.86,6.86,0,0,0,234.1,279.27Z"/><path class="cls-6" d="M232.59,273.78a2,2,0,0,1-.54-1.56L243,60.33a2.91,2.91,0,0,1,2.8-2.67h122a2,2,0,0,1,2.06,2.17L358.92,271.72a2.92,2.92,0,0,1-2.81,2.68h-122A2,2,0,0,1,232.59,273.78ZM245.77,57.91a2.66,2.66,0,0,0-2.55,2.44L232.3,272.24a1.74,1.74,0,0,0,1.8,1.91h122a2.67,2.67,0,0,0,2.56-2.44L369.59,59.82a1.77,1.77,0,0,0-.47-1.37,1.79,1.79,0,0,0-1.34-.54Z"/><ellipse class="cls-11" cx="303.91" cy="108.44" rx="37.9" ry="36" transform="translate(10.58 242.89) rotate(-44.26)"/><path class="cls-6" d="M274,108.44a28.73,28.73,0,0,0,2.87,14.24,28.07,28.07,0,0,0,25.47,15.64,31.74,31.74,0,0,0,27.08-15.64,30.81,30.81,0,0,0,4.34-14.24,28.09,28.09,0,0,0-28.34-29.88A31.81,31.81,0,0,0,274,108.44Z"/><path class="cls-9" d="M276.9,122.68a28.07,28.07,0,0,0,25.47,15.64,31.74,31.74,0,0,0,27.08-15.64,45.16,45.16,0,0,0-25.86-8A49.14,49.14,0,0,0,276.9,122.68Z"/><ellipse class="cls-9" cx="304.44" cy="98.22" rx="13.66" ry="12.97" transform="translate(17.86 240.36) rotate(-44.26)"/><path class="cls-6" d="M251.59,196.85h95.53a3.29,3.29,0,0,0,3.25-3.09l.72-14a2.91,2.91,0,0,0-2.93-3.09H252.63a3.29,3.29,0,0,0-3.25,3.09l-.72,14A2.9,2.9,0,0,0,251.59,196.85Z"/><path class="cls-12" d="M280.84,168.92h39.9a3.29,3.29,0,0,0,3.25-3.09l.15-3a2.9,2.9,0,0,0-2.93-3.08H281.32a3.29,3.29,0,0,0-3.25,3.08l-.16,3A2.91,2.91,0,0,0,280.84,168.92Z"/><path class="cls-12" d="M266,264.13h59.76a5.6,5.6,0,0,0,5.53-5.26l.35-6.89a5,5,0,0,0-5-5.26H266.9a5.61,5.61,0,0,0-5.53,5.26l-.35,6.89A4.94,4.94,0,0,0,266,264.13Z"/><path class="cls-6" d="M249.84,230.68h95.54a3.29,3.29,0,0,0,3.25-3.09l.72-14a2.91,2.91,0,0,0-2.93-3.09H250.89a3.29,3.29,0,0,0-3.25,3.09l-.73,14A2.91,2.91,0,0,0,249.84,230.68Z"/><path class="cls-13" d="M295,186.74a3.21,3.21,0,0,0,3.24,3.42,3.65,3.65,0,0,0,3.6-3.42,3.22,3.22,0,0,0-3.24-3.42A3.65,3.65,0,0,0,295,186.74Z"/><path class="cls-13" d="M284.46,186.74a3.22,3.22,0,0,0,3.25,3.42,3.64,3.64,0,0,0,3.59-3.42,3.21,3.21,0,0,0-3.24-3.42A3.65,3.65,0,0,0,284.46,186.74Z"/><path class="cls-13" d="M274,186.74a3.21,3.21,0,0,0,3.24,3.42,3.63,3.63,0,0,0,3.59-3.42,3.21,3.21,0,0,0-3.24-3.42A3.63,3.63,0,0,0,274,186.74Z"/><path class="cls-13" d="M263.45,186.74a3.21,3.21,0,0,0,3.24,3.42,3.65,3.65,0,0,0,3.6-3.42,3.22,3.22,0,0,0-3.25-3.42A3.64,3.64,0,0,0,263.45,186.74Z"/><path class="cls-13" d="M313.23,220.58a3.22,3.22,0,0,0,3.24,3.42,3.65,3.65,0,0,0,3.6-3.42,3.22,3.22,0,0,0-3.25-3.42A3.63,3.63,0,0,0,313.23,220.58Z"/><path class="cls-13" d="M302.72,220.58A3.22,3.22,0,0,0,306,224a3.65,3.65,0,0,0,3.6-3.42,3.22,3.22,0,0,0-3.24-3.42A3.65,3.65,0,0,0,302.72,220.58Z"/><path class="cls-13" d="M292.21,220.58a3.23,3.23,0,0,0,3.25,3.42,3.65,3.65,0,0,0,3.59-3.42,3.21,3.21,0,0,0-3.24-3.42A3.65,3.65,0,0,0,292.21,220.58Z"/><path class="cls-13" d="M281.71,220.58A3.22,3.22,0,0,0,285,224a3.64,3.64,0,0,0,3.59-3.42,3.21,3.21,0,0,0-3.24-3.42A3.63,3.63,0,0,0,281.71,220.58Z"/><path class="cls-13" d="M271.2,220.58a3.22,3.22,0,0,0,3.24,3.42,3.65,3.65,0,0,0,3.6-3.42,3.22,3.22,0,0,0-3.25-3.42A3.64,3.64,0,0,0,271.2,220.58Z"/><path class="cls-13" d="M260.69,220.58a3.22,3.22,0,0,0,3.24,3.42,3.65,3.65,0,0,0,3.6-3.42,3.21,3.21,0,0,0-3.24-3.42A3.65,3.65,0,0,0,260.69,220.58Z"/><path class="cls-14" d="M167,104.45c-.25.37-.38.58-.54.84L166,106c-.29.5-.55,1-.8,1.49-.5,1-1,2-1.4,3a55.36,55.36,0,0,0-2.16,6.1,63.63,63.63,0,0,0-2.38,12.54l-.07.79a4.61,4.61,0,0,0,0,.47l0,.54a12.86,12.86,0,0,0,.12,2.08,16.9,16.9,0,0,0,1,3.72,25.6,25.6,0,0,0,3.46,6,42.7,42.7,0,0,0,9.31,8.82l2.76-3.23a57.8,57.8,0,0,1-6.64-9.19,21.14,21.14,0,0,1-2-4.72,9.71,9.71,0,0,1-.33-2.14,4.66,4.66,0,0,1,0-.93l0-.22a1.31,1.31,0,0,1,0-.27l.12-.7a79.39,79.39,0,0,1,2.72-11c.58-1.78,1.29-3.51,2-5.2.35-.86.75-1.68,1.15-2.49l.62-1.17.31-.56.26-.43Z"/><path class="cls-15" d="M176.3,151.6l-3.62,7.65-2.87-6.47s2.55-5.6,6-5.09Z"/><polygon class="cls-15" points="170.09 159.63 167.21 154.91 169.81 152.78 172.68 159.25 170.09 159.63"/><path class="cls-9" d="M188,335.61a1.15,1.15,0,0,0,.33-1.06.68.68,0,0,0-.39-.55c-1-.45-3.52,1.2-3.81,1.39a.2.2,0,0,0-.09.2.21.21,0,0,0,.15.15,10.27,10.27,0,0,0,2.22.3A2.42,2.42,0,0,0,188,335.61Zm-.23-1.25c.07,0,.14.08.17.25a.77.77,0,0,1-.21.71c-.42.38-1.52.43-3,.14C185.75,334.83,187.22,334.12,187.73,334.36Z"/><path class="cls-9" d="M184.3,335.72c.8-.45,2.32-2.26,2.13-3.2a.69.69,0,0,0-.67-.55,1.05,1.05,0,0,0-.84.26c-.91.81-.92,3.22-.92,3.32a.2.2,0,0,0,.3.17Zm1.42-3.36c.25,0,.3.14.32.24.12.57-.83,1.93-1.63,2.57a4.51,4.51,0,0,1,.78-2.64.62.62,0,0,1,.44-.18Z"/><path class="cls-9" d="M195.84,332c1.12.81,3.17,2.12,4.33,1.75a1.08,1.08,0,0,0,.73-.72.62.62,0,0,0-.09-.62l-.05-.06c-.8-.88-4.4-.73-4.81-.71a.19.19,0,0,0-.18.14.19.19,0,0,0,0,.19Zm4.66.64a.27.27,0,0,1,0,.25.74.74,0,0,1-.48.49c-.65.2-1.94-.31-3.49-1.36,1.48,0,3.46.11,3.91.59Z"/><path class="cls-9" d="M196,332c1.1,0,3.65-.81,3.91-1.74.06-.22,0-.54-.45-.82a1.46,1.46,0,0,0-1.14-.15c-1.32.36-2.44,2.33-2.49,2.41a.23.23,0,0,0,0,.2l0,0A.21.21,0,0,0,196,332Zm3.52-1.84c-.15.55-2,1.28-3.15,1.42a4.58,4.58,0,0,1,2.05-1.9,1.06,1.06,0,0,1,.84.1,1.25,1.25,0,0,1,.19.15A.22.22,0,0,1,199.47,330.19Z"/><path class="cls-15" d="M184.8,75.16c1,5,3.16,15.81-.31,19.13,0,0,1.36,5,10.59,5,10.16,0,4.85-5,4.85-5-5.54-1.33-5.4-5.44-4.43-9.3Z"/><path class="cls-13" d="M201.72,63.44a.37.37,0,0,1-.17,0,.39.39,0,0,1-.18-.53,3.94,3.94,0,0,1,2.88-2.2.4.4,0,0,1,.09.79h0a3.14,3.14,0,0,0-2.26,1.77A.42.42,0,0,1,201.72,63.44Z"/><path class="cls-16" d="M204.75,67.78a18,18,0,0,0,2.92,4,2.89,2.89,0,0,1-2.33.75Z"/><path class="cls-13" d="M204,66.7c.08.67.51,1.17.94,1.12s.73-.64.65-1.32-.51-1.17-.95-1.11S203.93,66,204,66.7Z"/><path class="cls-13" d="M204.46,65.45l1.56-.66S205.35,66.15,204.46,65.45Z"/><polygon class="cls-15" points="186.98 330.06 195.14 331.97 200.1 313.21 191.94 311.3 186.98 330.06"/><polygon class="cls-15" points="174.46 335.55 182.84 335.55 182.18 316.15 173.8 316.15 174.46 335.55"/><path class="cls-13" d="M183.5,334.58h-9.41a.67.67,0,0,0-.67.57l-1.07,7.45a1.35,1.35,0,0,0,1.34,1.49c3.28-.06,4.86-.25,9-.25,2.55,0,6.27.26,9.78.26s3.71-3.47,2.24-3.79c-6.56-1.41-7.6-3.36-9.81-5.21A2.17,2.17,0,0,0,183.5,334.58Z"/><path class="cls-13" d="M195.86,330.72l-8.55-3.93a.64.64,0,0,0-.84.24l-4.09,6.31a1.36,1.36,0,0,0,.6,1.92c3,1.32,4.52,1.8,8.28,3.53,2.31,1.07,7,3.51,10.18,5s4.82-1.61,3.62-2.51c-5.37-4-6.91-6.88-8.14-9.49A2.16,2.16,0,0,0,195.86,330.72Z"/><polygon class="cls-17" points="200.09 313.21 197.44 323.26 189.38 320.98 191.93 311.31 200.09 313.21"/><polygon class="cls-17" points="173.8 316.16 182.18 316.16 182.51 326.16 174.13 326.16 173.8 316.16"/><path class="cls-13" d="M170,96.19c-3.48.76-7.2,13.28-7.2,13.28l9.84,10.46s8.17-11.75,6.5-16.08C177.45,99.35,174.15,95.29,170,96.19Z"/><path class="cls-18" d="M175.56,104.16c1.76-1.61,2.95-1.13,3.76.15.8,3.72-3.94,11.51-5.85,14.46C172.59,115.25,171.58,107.82,175.56,104.16Z"/><path class="cls-13" d="M214.09,96.43s4,1.41-4,50.56h-34c.57-13.85.59-22.39-6-50.8a100.28,100.28,0,0,1,14.45-1.9,107.4,107.4,0,0,1,15.44,0C206.57,94.89,214.09,96.43,214.09,96.43Z"/><path class="cls-18" d="M214.4,115.3c-.22,2.39-.51,5.08-.89,8.12-2.79-2.51-5.07-9.65-4.23-13.81A24.59,24.59,0,0,1,214.4,115.3Z"/><path class="cls-14" d="M210.76,107.85c1.86,4.67,3.89,9.11,6.19,13.55a83.26,83.26,0,0,0,8,13l.64.78.32.4c.11.13.2.25.37.43a12.36,12.36,0,0,0,2,1.75,16,16,0,0,0,4.18,2.09,30.53,30.53,0,0,0,8,1.42,59.36,59.36,0,0,0,15.16-1.35l-.55-4.2c-2.3,0-4.71,0-7-.19a54.52,54.52,0,0,1-6.86-.77,26.46,26.46,0,0,1-6.14-1.71,9.18,9.18,0,0,1-2.21-1.35,4.14,4.14,0,0,1-.69-.71s-.12-.17-.2-.27l-.23-.33-.47-.66a99.89,99.89,0,0,1-6.69-12.11c-2-4.26-4-8.67-5.83-13Z"/><path class="cls-13" d="M214.09,96.43c4.17,1,9.29,12.45,9.29,12.45l-8.64,12.69s-11.51-14.48-10.14-18.91C206,98.06,209,95.2,214.09,96.43Z"/><path class="cls-15" d="M252.67,136.34l7.21-3.33.72,7.17s-6,1.77-9-.05Z"/><polygon class="cls-15" points="264.19 132.29 264.88 137.74 260.6 140.18 259.88 133.01 264.19 132.29"/><path class="cls-15" d="M181.18,67.19c1.53,8.17,2,11.66,6.68,15.37,7,5.59,16.75,1.93,17.69-6.53.86-7.62-1.78-19.71-10.25-22A11.34,11.34,0,0,0,181.18,67.19Z"/><path class="cls-13" d="M199.13,68.91c.47,4.17.65,15-8.5,15.33-11.22.42-14.58-9.16-13.58-13-5.84-4.75-6.68-12.91-.12-19.16s21-2.76,25,3.33C207,63,199.13,68.91,199.13,68.91Z"/><path class="cls-9" d="M187.9,54.51c.54-4.4.12-7.43-4-7.43s-9.74,1.49-11.8,5.7-2.23,10.8,3.52,10.13S187.25,59.77,187.9,54.51Z"/><path class="cls-13" d="M181.52,53.45c1-5.24-3.69-20-15.08-21-5.28-.44-7.72,5.24-5,6.18-5-.06-8.2,6.54-3.54,7.54-3.68,2.35-2.77,7.2,2.48,9.58C164.29,57.54,180.17,60.7,181.52,53.45Z"/><path class="cls-13" d="M169.35,59.08c3.67,0,7.5-.54,9.88-2.13a4.93,4.93,0,0,0,2.35-3.81.25.25,0,0,0-.23-.26.24.24,0,0,0-.27.23A4.43,4.43,0,0,1,179,56.53c-4.53,3-15,2-18.26,1-2.82-.92-4.73-2.7-5.11-4.77a4.13,4.13,0,0,1,1.67-4,.25.25,0,1,0-.31-.39,4.66,4.66,0,0,0-1.85,4.53c.41,2.25,2.44,4.17,5.44,5.15A32.69,32.69,0,0,0,169.35,59.08Z"/><path class="cls-15" d="M201.68,67.81a6.15,6.15,0,0,1,1.07,4.51c-.33,2.1-2.37,2.24-3.85.89s-2.77-3.76-1.68-5.5A2.63,2.63,0,0,1,201.68,67.81Z"/><path class="cls-9" d="M201.11,147s-4.86,57.49-9.91,89.89c-4.07,26.17-7.29,87.34-7.29,87.34H172.49s-4.06-59.34-2-85.23c5.23-65.49-6.44-70.83,5.57-92Z"/><path class="cls-18" d="M186.73,168.72A55.8,55.8,0,0,1,197.52,185c-1.33,12.92-2.91,27.26-4.59,39.82A110.38,110.38,0,0,1,186.73,168.72Z"/><path class="cls-9" d="M209.1,146.63s10.55,62.78,12.21,91.09c-4.14,26.17-21.08,81.48-21.08,81.48l-10.39-3.76s5.75-60.32,12-76.83c-14.07-47.38-24.41-59.35-21.4-91.62C187.65,147,209.1,146.63,209.1,146.63Z"/><polygon class="cls-13" points="201.62 321.97 187.58 318.15 188.38 312.56 203.41 316.62 201.62 321.97"/><polygon class="cls-13" points="185.48 324.45 170.93 324.45 170.16 319.34 185.56 318.82 185.48 324.45"/><path class="cls-9" d="M175.56,145,174,148c-.12.23.16.47.55.47h35.68c.3,0,.56-.15.58-.34l.31-3c0-.22-.25-.39-.58-.39H176.12A.63.63,0,0,0,175.56,145Z"/><path class="cls-19" d="M175.56,145,174,148c-.12.23.16.47.55.47h35.68c.3,0,.56-.15.58-.34l.31-3c0-.22-.25-.39-.58-.39H176.12A.63.63,0,0,0,175.56,145Z"/><path class="cls-9" d="M180.19,148.84h-.92c-.19,0-.33-.09-.32-.21l.44-3.95c0-.12.17-.21.35-.21h.93c.18,0,.32.09.31.21l-.43,3.95C180.53,148.75,180.37,148.84,180.19,148.84Z"/><path class="cls-9" d="M192.57,119.7a.5.5,0,0,0,.49-.37c3.26-12,10-22,13.27-23.49a1.1,1.1,0,0,1,.85-.14.51.51,0,0,0,.66-.25.5.5,0,0,0-.25-.66,1.93,1.93,0,0,0-1.68.14c-3.46,1.63-10.3,11.43-13.72,23.77-2.45,0-6.23-.34-7.15-.41-1.14-1.36-9.52-11.84-6.39-23.31a.5.5,0,0,0-1-.26c-3.49,12.76,6.63,24.27,6.74,24.38a.51.51,0,0,0,.32.17C184.8,119.27,189.79,119.7,192.57,119.7Z"/><path class="cls-9" d="M176,126.77c5.45-10.22,7.68-10.93,8.65-14.22a17,17,0,0,0-3.1-5c.66-.18,2.08-.47,3-.64-.1-.44-.21-.89-.31-1.31a9.26,9.26,0,0,1,3.05.14l0-1a12.66,12.66,0,0,1,3.87-.25q-.17.7-.33,1.44c1,.19,2.52.5,3.25.7a14.41,14.41,0,0,0-3,5.58c2.94,5,14.36,37.51-4.22,40S170.56,137,176,126.77Z"/><path class="cls-20" d="M176,126.77c5.45-10.22,7.68-10.93,8.65-14.22a17,17,0,0,0-3.1-5c.66-.18,2.08-.47,3-.64-.1-.44-.21-.89-.31-1.31a9.26,9.26,0,0,1,3.05.14l0-1a12.66,12.66,0,0,1,3.87-.25q-.17.7-.33,1.44c1,.19,2.52.5,3.25.7a14.41,14.41,0,0,0-3,5.58c2.94,5,14.36,37.51-4.22,40S170.56,137,176,126.77Z"/><path class="cls-9" d="M191.74,111.24a6.26,6.26,0,0,1,.15,1.56c0,.38-1,.63-2.11.73s-5.77.3-5.62-.23-.23-1.22-.25-1.66,1.85-.46,3.42-.4S191.43,110.68,191.74,111.24Z"/><path class="cls-9" d="M202.55,148.84h-.92c-.18,0-.32-.09-.31-.21l.43-3.95c0-.12.17-.21.36-.21H203c.18,0,.32.09.31.21l-.43,3.95C202.9,148.75,202.74,148.84,202.55,148.84Z"/></svg>