<svg id="Layer_1" data-name="Layer 1" xmlns="http://www.w3.org/2000/svg" viewBox="0 0 143.21 135.43"><defs><style>.cls-1,.cls-2,.cls-3,.cls-5,.cls-6{fill:none;}.cls-1,.cls-2,.cls-3,.cls-5{stroke:#2a255a;}.cls-1,.cls-3{stroke-miterlimit:10;}.cls-1{stroke-width:6px;}.cls-2,.cls-5,.cls-6{stroke-linecap:round;stroke-linejoin:round;}.cls-2{stroke-width:4px;}.cls-4{fill:#f192ad;}.cls-5{stroke-width:2px;}.cls-6{stroke:#f193ad;stroke-width:3px;}.cls-7{fill:#2a255a;}</style></defs><rect class="cls-1" x="21.19" y="19.04" width="101" height="101" rx="10.61"/><line class="cls-2" x1="86.4" y1="13.88" x2="86.4" y2="29.37"/><line class="cls-2" x1="93.93" y1="19.48" x2="93.93" y2="34.97"/><line class="cls-2" x1="101" y1="3.27" x2="101" y2="28.81"/><line class="cls-2" x1="107.76" y1="14.45" x2="107.76" y2="40"/><circle class="cls-3" cx="137.8" cy="49.56" r="4.91"/><circle class="cls-4" cx="29.43" cy="4.91" r="4.91"/><polyline class="cls-5" points="55.72 85.64 60.39 89.33 66.04 84.66 70.96 89.33 76.12 84.66 81.65 89.33 85.58 85.89"/><line class="cls-6" x1="44.05" y1="62.36" x2="52.62" y2="70.93"/><line class="cls-6" x1="52.62" y1="62.36" x2="44.05" y2="70.93"/><line class="cls-6" x1="90.31" y1="62.36" x2="98.88" y2="70.93"/><line class="cls-6" x1="98.88" y1="62.36" x2="90.31" y2="70.93"/><circle class="cls-7" cx="3.41" cy="132.02" r="3.41"/></svg>