<svg xmlns="http://www.w3.org/2000/svg" id="Layer_1" data-name="Layer 1" viewBox="0 0 143.21 135.43"><defs><style>.cls-1,.cls-2,.cls-3,.cls-5,.cls-6{fill:none}.cls-1,.cls-2,.cls-3,.cls-5{stroke:#2a255a}.cls-1,.cls-3{stroke-miterlimit:10}.cls-1{stroke-width:6px}.cls-2,.cls-5,.cls-6{stroke-linecap:round;stroke-linejoin:round}.cls-2{stroke-width:4px}.cls-4{fill:#f192ad}.cls-5{stroke-width:2px}.cls-6{stroke:#f193ad;stroke-width:3px}.cls-7{fill:#2a255a}</style></defs><rect width="101" height="101" x="21.19" y="19.04" class="cls-1" rx="10.61"/><line x1="86.4" x2="86.4" y1="13.88" y2="29.37" class="cls-2"/><line x1="93.93" x2="93.93" y1="19.48" y2="34.97" class="cls-2"/><line x1="101" x2="101" y1="3.27" y2="28.81" class="cls-2"/><line x1="107.76" x2="107.76" y1="14.45" y2="40" class="cls-2"/><circle cx="137.8" cy="49.56" r="4.91" class="cls-3"/><circle cx="29.43" cy="4.91" r="4.91" class="cls-4"/><polyline points="55.72 85.64 60.39 89.33 66.04 84.66 70.96 89.33 76.12 84.66 81.65 89.33 85.58 85.89" class="cls-5"/><line x1="44.05" x2="52.62" y1="62.36" y2="70.93" class="cls-6"/><line x1="52.62" x2="44.05" y1="62.36" y2="70.93" class="cls-6"/><line x1="90.31" x2="98.88" y1="62.36" y2="70.93" class="cls-6"/><line x1="98.88" x2="90.31" y1="62.36" y2="70.93" class="cls-6"/><circle cx="3.41" cy="132.02" r="3.41" class="cls-7"/></svg>