<svg xmlns="http://www.w3.org/2000/svg" id="Layer_1" data-name="Layer 1" viewBox="0 0 471.18 415.37"><defs><style>.cls-1{fill:#f0f0f0}.cls-2{fill:#e0e0e0}.cls-3{fill:#5dbdb0}.cls-4,.cls-6{opacity:.15}.cls-12,.cls-5{fill:#fff}.cls-7{fill:#455a64}.cls-8{fill:#263239}.cls-9{fill:#37474f}.cls-10{fill:#fbfbfb}.cls-11{fill:#f4a6a7}.cls-12{opacity:.6}.cls-13{opacity:.1}.cls-14{fill:#f28f8f}</style></defs><ellipse id="Floor" cx="235.59" cy="279.35" class="cls-1" rx="235.59" ry="136.02"/><ellipse id="Shadow" cx="284.34" cy="335.53" class="cls-2" rx="81.24" ry="46.9"/><g id="Plants"><path d="M53.31,276.85l9.53-5.5s2.33-20.4.78-36.21C61.44,212.94,47.1,186.23,30,192.5s7.84,28.89,13.39,47.72S53.31,276.85,53.31,276.85Z" class="cls-3"/><path d="M53.31,276.85l9.53-5.5s2.33-20.4.78-36.21C61.44,212.94,47.1,186.23,30,192.5s7.84,28.89,13.39,47.72S53.31,276.85,53.31,276.85Z" class="cls-4"/><path d="M58.32,274.53h0a.58.58,0,0,1-.55-.6c1.67-49.33-22.89-74.14-23.13-74.39a.57.57,0,1,1,.8-.82c.26.25,25.17,25.42,23.48,75.25A.58.58,0,0,1,58.32,274.53Z" class="cls-5"/><path d="M47.32,280.28l6.78-3.92s1.16-14-5.71-31c-6-14.81-20.8-27.09-28.26-24.51s-7.27,7.87-3.63,13.41S42.25,253,47.32,280.28Z" class="cls-3"/><path d="M50.9,278.79h0a.58.58,0,0,1-.58-.58c.14-31.19-29.15-52.27-29.45-52.48a.58.58,0,0,1-.13-.81.56.56,0,0,1,.8-.13c.3.21,30.07,21.64,29.94,53.42A.58.58,0,0,1,50.9,278.79Z" class="cls-5"/></g><g id="Plants-2" data-name="Plants"><path d="M405.93,264.59l-8.8-5.94s-3.87-23-.27-43.29c5.06-28.46,24.69-37.93,31.69-35s8.5,11.46-4.57,27.71C416.27,217.71,406.2,238.09,405.93,264.59Z" class="cls-3"/><g class="cls-6"><path d="M405.93,264.59l-8.8-5.94s-3.87-23-.27-43.29c5.06-28.46,24.69-37.93,31.69-35s8.5,11.46-4.57,27.71C416.27,217.71,406.2,238.09,405.93,264.59Z"/></g><path d="M402.91,253.19H403a.63.63,0,0,0,.56-.7c-3.18-26.8,8.13-55.87,20.44-67.44a.64.64,0,0,0,0-.9.63.63,0,0,0-.9,0c-12.53,11.78-24.05,41.32-20.83,68.52A.64.64,0,0,0,402.91,253.19Z" class="cls-5"/><path d="M429,280.13c1.4.84,5.48-2.19,6.61-2.91a13.59,13.59,0,0,0,4.58-5.06,12.69,12.69,0,0,0,1.27-7.57,29.89,29.89,0,0,0-.89-4c-.35-1.31-.7-2.62-1-3.93a9.79,9.79,0,0,1-.5-4c.39-2.67,2.8-4.5,5-6.08,2.42-1.74,4.95-4.06,5-7.28a11.27,11.27,0,0,0-2.71-6.8c-1.5-2-3.3-3.74-4.65-5.83a8,8,0,0,1-1.53-5,8.38,8.38,0,0,1,1.16-3.11c1.18-2.08,2.71-4,3.54-6.21s.77-5-1-6.69c-1.41-1.35-3.56-1.58-5.51-1.49a12.8,12.8,0,0,0-5.2,1.72c-5.17,2.74-8.21,8.75-13.68,10.83-2.11.81-4.41,1-6.6,1.48s-4.45,1.61-5.5,3.61c-2.07,3.94,1.54,8.92.06,13.12-1.32,3.71-5,5.08-7.08,8.41a7.91,7.91,0,0,0-1,4.87,23.36,23.36,0,0,0,1.9,8.32,74,74,0,0,0,4.37,7.87S428.76,280,429,280.13Z" class="cls-3"/><path d="M415.45,271.84h0a.64.64,0,0,0,.63-.65c-.56-25.32,11.9-53,20.72-61a.64.64,0,0,0-.85-.95c-9,8.11-21.71,36.26-21.14,61.94A.63.63,0,0,0,415.45,271.84Z" class="cls-5"/><path d="M420.12,241a.57.57,0,0,0,.18,0,85.74,85.74,0,0,1,18.42-2.6.64.64,0,0,0,.62-.65.62.62,0,0,0-.65-.63c-.1,0-10.4.26-18.74,2.66a.63.63,0,0,0-.43.79A.64.64,0,0,0,420.12,241Z" class="cls-5"/></g><g id="Speach_Bubble" data-name="Speach Bubble"><path d="M184.43,247.19l3.79-2.19a4.81,4.81,0,0,0,2.17-3.76V83.73A4.8,4.8,0,0,0,188.23,80L82.88,19.16a4.79,4.79,0,0,0-4.33,0l-3.8,2.19a4.8,4.8,0,0,0-2.16,3.75V182.61a4.8,4.8,0,0,0,2.16,3.75L180.1,247.19A4.79,4.79,0,0,0,184.43,247.19Z" class="cls-7"/><path d="M72.61,24.75c.15-1.12,1.06-1.53,2.15-.9L180.1,84.68a4.48,4.48,0,0,1,1.53,1.61l8.13-4.69A4.43,4.43,0,0,0,188.23,80L82.88,19.16a4.79,4.79,0,0,0-4.33,0l-3.79,2.19A4.83,4.83,0,0,0,72.61,24.75Z" class="cls-7"/><path d="M180.47,247.36a4.83,4.83,0,0,0,4-.17l3.8-2.2a4.8,4.8,0,0,0,2.16-3.75V83.73a4.43,4.43,0,0,0-.63-2.13l-8.13,4.69a4.37,4.37,0,0,1,.64,2.14V245.94C182.27,247.18,181.49,247.75,180.47,247.36Z" class="cls-8"/><path d="M182.27,88.42V245.94c0,1.38-1,1.94-2.17,1.25L74.75,186.36a4.8,4.8,0,0,1-2.16-3.75V25.1c0-1.38,1-1.94,2.16-1.25L180.1,84.67A4.78,4.78,0,0,1,182.27,88.42Z" class="cls-9"/><path d="M206.87,148.47c1.36-.81,7.67-4.4,8-4.59a2,2,0,0,0,.43-3.09l-24.91-26.72-8.12,4.66,24.9,26.73A2,2,0,0,1,206.87,148.47Z" class="cls-7"/><path d="M182.27,118.73l24.9,26.72a2,2,0,0,1-1.63,3.36l-23.27-1.91Z" class="cls-9"/><path d="M127.43,70.65c-12.28-7.09-22.23-1.35-22.23,12.83s10,31.42,22.23,38.5,22.23,1.35,22.23-12.83S139.71,77.73,127.43,70.65Z" class="cls-3"/><path d="M127.58,81.8c-4-2.3-7.21-.43-7.21,4.17a15.94,15.94,0,0,0,7.21,12.49c4,2.3,7.22.43,7.22-4.17A15.93,15.93,0,0,0,127.58,81.8Z" class="cls-5"/><path d="M113.37,106.33c0-7.56,5.31-10.62,11.85-6.84l4.09,2.36c6.54,3.78,11.85,13,11.85,20.52v2.06a12.13,12.13,0,0,1-3.82.59,20,20,0,0,1-9.91-3,43.6,43.6,0,0,1-14.06-13.9Z" class="cls-5"/><path d="M141.51,192.17l-28.16-16.26c-1.2-.69-2.17-.13-2.17,1.25v9.07a4.78,4.78,0,0,0,2.17,3.75l28.16,16.26c1.2.69,2.17.14,2.17-1.25v-9.07A4.78,4.78,0,0,0,141.51,192.17Z" class="cls-3"/><path d="M155.3,171.91,99.56,139.73c-1.43-.83-2.6-.16-2.6,1.5v3.38a5.77,5.77,0,0,0,2.6,4.5l55.74,32.18c1.43.82,2.59.15,2.59-1.5v-3.38A5.74,5.74,0,0,0,155.3,171.91Z" class="cls-10"/></g><g id="Character"><path d="M279.06,116.66h35.53V30.57A28.19,28.19,0,0,0,286.4,2.38h-3.28a28.19,28.19,0,0,0-28.19,28.19v62A24.14,24.14,0,0,0,279.06,116.66Z" class="cls-8"/><path d="M318.05,323.88a66.31,66.31,0,0,1,1,10.81c.13,6.56,1.33,8.88,1.49,14.27.19,6.15-.88,8.45-3.37,11.9s-9.05,6.6-11.82.75-2.41-9.67-1.52-15.7c.91-6.24,1-9.68,1.56-14.44.46-4.19,1-7.38,1-7.38Z" class="cls-8"/><path d="M299.43,280.31l21.6-.39c-.32,14.42-2.61,30.43-3,44-.08,2.55.06,19.8-.9,25-1.45,7.87-10.79,6.81-11.29,2.1s.6-24.85.57-26.93c.09-8.67-4-23.32-6.11-38.9C300.21,284.42,299.53,281.06,299.43,280.31Z" class="cls-11"/><path d="M271.68,312.66s.85-.46,1,.45c.21,1.09.53,3.32,1,5.1.62,2.47,1.14,6.54.77,8.55s-5.07,4.61-8.12,5.54a24.86,24.86,0,0,0-10,5.95c-3,2.84-9.53,5.53-14,5.5-5.25,0-8.91-1.75-10.64-4.56s1.58-3.15,7.58-7l4.65-3c9.51-6.2,13-9.53,15.67-15.74Z" class="cls-8"/><path d="M259.51,308.82c.16-4.47-2.9-42.35-2.9-42.35l20.51,9.35c-4.39,26.23-5.33,32.41-5.4,36.7h0a3.87,3.87,0,0,1,.11,1.1c0,5.1-5.77,7.84-10.25,11.24a84.25,84.25,0,0,1-12.13,7.92c-3.26,1.64-9.88,1.79-10.7-.31,5.46-4.17,13.4-10.41,17.74-15.17C258.56,315,259.35,313.28,259.51,308.82Z" class="cls-11"/><path d="M312.18,139.6c7.88,17.3,7.88,30.68,6.57,52.75-1.19,20.24-3.09,38.06-3.09,38.06C316,234,321,241,321.6,256.89c.6,14.84-1,33.71-1,33.71s-11.21,6.21-19.5-.06c0,0-8-38.18-10.34-56.76-2-16.22-5.6-36.93-5.6-36.93l-7.53,36.84a96,96,0,0,1,3.54,16c1.06,10.93-5.06,32.39-5.06,32.39s-11.58,3.45-18.65-2.82c0,0-2.64-34.89-3.63-48-1.32-17.63,1.46-65.35,3.63-90.62Z" class="cls-7"/><path d="M285.14,196.85,282,169.12s-13.94-1.87-20.26-7.8A22.91,22.91,0,0,0,278.2,171.7l4.5,25.8-5.09,36.19Z" class="cls-8"/><path d="M228.69,132.79a120.47,120.47,0,0,1-.76-15.26c.31-4.4,1.1-5.11,7.25-12.91,8.3-10.53,15.39-20,22.89-29.4,5.36-6.73,11-7.76,16.48-7.46,3.84.22-3.66,18.69-7.43,29.61l-21.55,23.19a4.58,4.58,0,0,0-.86,3.16L246,143.46l-6.45,8.63S229.81,143.66,228.69,132.79Z" class="cls-11"/><path d="M295.31,68.36h0c4.17.29,11.75,1,11.75,1,4.37,2.44,5.48,4.44,6.29,10.25C313.7,82,311.68,88.63,310,98l-3.28,17.38L307,124c1.7,5.26,5.55,11.79,9,21.43-16.7,9.31-30.7,9.66-43.4,8-9.68-1.24-14.81-3.59-16.52-5.9.36-9.52,1-15.39,1.2-25.34.07-4.17-.18-8.38-.35-13.19-6.49-5.34-6.57-14.21-3-20,8.23-13.33,16.24-21.72,21.54-21.29Z" class="cls-3"/><path d="M295.31,68.36h0c4.17.29,11.75,1,11.75,1,4.37,2.44,5.48,4.44,6.29,10.25C313.7,82,311.68,88.63,310,98l-3.28,17.38L307,124c1.7,5.26,5.55,11.79,9,21.43-16.7,9.31-30.7,9.66-43.4,8-9.68-1.24-14.81-3.59-16.52-5.9.36-9.52,1-15.39,1.2-25.34.07-4.17-.18-8.38-.35-13.19-6.49-5.34-6.57-14.21-3-20,8.23-13.33,16.24-21.72,21.54-21.29Z" class="cls-12"/><path d="M269.84,109.16s7.62,5.92,16.33,2.83a14.88,14.88,0,0,0,10-10.69s.92,10-10.05,13.34C275.49,117.92,269.84,109.16,269.84,109.16Z" class="cls-13"/><path d="M259.5,41.05c.33,14.44,5,18,7.36,19s6.88.4,11.28-.32v8.66s-5.08,5.32-4.7,9.29,8,4.42,13.68.53a43,43,0,0,0,8.43-7.61,3.09,3.09,0,0,0,.73-2V48.25s2.41,2.55,6.67-.37a7.85,7.85,0,0,0,2-11.42c-1.85-2.18-6.57-2.34-8.83,1.06-1.28,2.49-1.45,5-2.88,3.95-3.8-2.73-1.76-9-6.35-12h0a31.92,31.92,0,0,0-4.68-2c-8.19-2.84-15.29-5.21-17-10.81C262,18.49,259.1,24,259.5,41.05Z" class="cls-11"/><path d="M276.91,38.86a2,2,0,1,0,2.1-2A2,2,0,0,0,276.91,38.86Z" class="cls-8"/><path d="M261.76,39.06a1.85,1.85,0,0,0,1.72,2,1.74,1.74,0,0,0,1.91-1.8,1.82,1.82,0,1,0-3.63-.17Z" class="cls-8"/><path d="M273,37.5c0-4.42,4.56-4.42,6.5-4.42s6.51,0,6.51,4.42a6.51,6.51,0,1,1-13,0Zm1,0a5.48,5.48,0,1,0,11,0c0-2.44-1.53-3.39-5.48-3.39S274,35.06,274,37.5Z" class="cls-7"/><path d="M256.47,37.5c0-4.42,4.56-4.42,6.5-4.42s6.51,0,6.51,4.42a6.51,6.51,0,1,1-13,0Zm1,0a5.48,5.48,0,1,0,11,0c0-2.44-1.54-3.39-5.48-3.39S257.49,35.06,257.49,37.5Z" class="cls-7"/><polygon points="271.97 35.41 271.65 47.55 265.26 45.57 271.97 35.41" class="cls-14"/><path d="M278.15,59.75c4.64-.61,14.19-3.35,15.68-7.13a9.78,9.78,0,0,1-3.35,4.82c-2.85,2.45-12.33,5.2-12.33,5.2Z" class="cls-14"/><path d="M277.92,29.51l4.24,2.58a2.61,2.61,0,0,0-.86-3.5A2.43,2.43,0,0,0,277.92,29.51Z" class="cls-8"/><path d="M260.67,32.39l4.72-1.65a2.41,2.41,0,0,0-3.1-1.59A2.63,2.63,0,0,0,260.67,32.39Z" class="cls-8"/><path d="M273.49,38a.51.51,0,0,0,.51-.52c0-.83-1.64-1.37-3.12-1.37s-2.43.54-2.43,1.37a.52.52,0,0,0,1,0,2.06,2.06,0,0,1,1.4-.34,5.91,5.91,0,0,1,2.1.35A.51.51,0,0,0,273.49,38Z" class="cls-7"/><path d="M285.46,37.59h.06l11.43-1a5.42,5.42,0,0,1,1.87-1.21L285.4,36.56a.52.52,0,0,0,.06,1Z" class="cls-7"/><path d="M332.39,49.5c-3.74-5-6.29-8.77-9.7-13-1.94-2.43-3.18-4.16-5-6.66-1.28-1.72-2-3.16-3.46-3.7A11.86,11.86,0,0,1,310,23.23a24,24,0,0,1-2-2.52,37.3,37.3,0,0,0-7.56-7.6c-3-2.27-6.35-4-9.44-6.16-1.84-1.29-3.81-3.43-1.57-5.43A5.31,5.31,0,0,1,291.87.38c5.45-1.19,10.19.68,15.52,2.05a44.9,44.9,0,0,1,6.77,2.28,11.78,11.78,0,0,1,3,1.73,15.64,15.64,0,0,1,3.09,4.41c2.39,4.22,7.35,7.94,10.84,11.22,4.09,3.85,7.75,7.38,12.42,11.63,4.2,3.82,8.31,7.34,12.16,11.52,3.19,3.45,2,6.16,1.58,7.09-2.6,5.34-5.51,7.26-9,10.57-6,5.73-26.75,22.23-33.62,27.67a11.28,11.28,0,0,0-3.37,4.4L310,98c-7.84,1.44-13.07-10.33-6.58-24.5a14.87,14.87,0,0,1,4.77-5.75C316.33,61.78,332.39,49.5,332.39,49.5Z" class="cls-11"/><path d="M332.39,49.5A20.63,20.63,0,0,0,342,56.09s-5,1.28-11.85-4.86Z" class="cls-14"/><path d="M230.73,122.35h0l1.28-1.1v0a1.4,1.4,0,0,1,1.31-.15l13.89,3.77a5.12,5.12,0,0,1,3.12,2.92l10,28.83a1.32,1.32,0,0,1-.18,1.47h0l-1.32,1.13h0a1.45,1.45,0,0,1-1.33.15l-13.89-3.77a5.12,5.12,0,0,1-3.12-2.92c-2-5.66-8-23.16-10-28.83C230.23,123.16,230.35,122.63,230.73,122.35Z" class="cls-7"/><path d="M259,157.75l-10-28.83A5.1,5.1,0,0,0,245.9,126L232,122.23c-1.29-.35-2,.38-1.54,1.64,2,5.67,8,23.17,10,28.83a5.12,5.12,0,0,0,3.12,2.92l13.89,3.77C258.76,159.74,259.45,159,259,157.75Z" class="cls-3"/><path d="M247.41,126.8a5,5,0,0,1,1.62,2.12l10,28.82a1.38,1.38,0,0,1-.14,1.45l1.24-1.07h0a1.3,1.3,0,0,0,.19-1.47l-10-28.84a4.91,4.91,0,0,0-1.49-2Z" class="cls-9"/><path d="M234.54,135.49c1,2.94,4.47,4.9,10.21,6.25s8.91,7.45,8,9.31-10.19,3.57-13.9,3-7.43-5.89-8.56-7.55-2.43-13.23-1.24-14.82,3.7-1.35,3.7-1.35Z" class="cls-14"/></g></svg>